<svg xmlns="http://www.w3.org/2000/svg" viewBox="0 0 24 24" width="24" height="24" fill="none">
  <path d="M14.36 9.91C13.56 8.7 11.88 8.4 10.37 9.18 8.87 9.97 7.97 11.63 8.25 13.11 8.53 14.59 9.9 15.47 11.5 15.2 13.1 14.93 14.47 13.58 14.75 12H11.75" stroke="currentColor" stroke-width="1.5" stroke-linecap="round" stroke-linejoin="round" />
  <path d="M21.5 12C21.18 13.79 19.47 15.25 17.68 15.25 15.88 15.25 14.68 13.79 15 12 15.32 10.21 17.03 8.75 18.82 8.75 20.62 8.75 21.82 10.21 21.5 12Z" stroke="currentColor" stroke-width="1.5" stroke-linecap="round" stroke-linejoin="round" />
  <path d="M4.81 10.25H6.56" stroke="currentColor" stroke-width="1.5" stroke-linecap="round" stroke-linejoin="round" />
  <path d="M2.62 12.75H5.62" stroke="currentColor" stroke-width="1.5" stroke-linecap="round" stroke-linejoin="round" />
</svg>
