<svg width="400" height="400" xmlns="http://www.w3.org/2000/svg" preserveAspectRatio="xMidYMid meet">
 <g>
  <title>background</title>
  <rect x="-1" y="-1" width="402" height="402" id="canvas_background" fill="none"/>
 </g>

 <g>
  <title>Layer 1</title>
  <path d="m186.5,33.451921c-5.5,0.70001 -11,1.8 -12.3,2.4c-1.3,0.5 -3,1 -3.8,1c-4.1,0 -20.9,8.5 -29.1,14.70001c-11.5,8.7 -21.4,21.29999 -26.7,34.3c-1,2.5 -2.2,5.4 -2.7,6.5c-0.9,1.9 -1.6,5 -4,17c-0.6,2.7 -1.1,13.2 -1.2,23.2c-0.1,17.9 -0.1,18.3 -2.2,18.3c-5.4,0 -37.5,5.9 -38.9,7.2c-0.6,0.4 -1.6,0.8 -2.4,0.8c-1.9,0 -8.1,2.9 -11.2,5.3c-3.3,2.5 -4.9,5.5 -5,9.4c0,7.6 7.5,14.5 25,23c10.1,4.9 13.8,6.5 20.5,8.8c2.8,0.9 5.7,2.1 6.6,2.5c0.9,0.5 3.3,1.2 5.4,1.6l3.7,0.7l-0.7,8.1c-0.3,4.4 -1,10.3 -1.5,13.1c-0.5,2.7 -1.6,12.2 -2.5,21c-0.8,8.8 -2,20.5 -2.6,26c-1.8,17.5 -4.8,70.9 -4.8,87.2l-0.1,11.3l6.4,0l6.4,0l0.6,-19.8c1.5,-40.5 7.2,-110.7 11,-135.70001c0.4,-1.9 0.8,-5.1 1.1,-7c0.7,-4.3 2.5,-4.5 4.8,-0.5c2.7,4.5 12.2,14.5 17.5,18.3c15.4,11.20001 39.1,20 61.4,22.8c15.5,2 35.4,-0.8 49.2,-6.89999c5.8,-2.60001 6.3,-1.9 4.7,7.1c-1.9,10.6 -5.7,55.8 -7.1,82.9c-0.5,11.2 -1.2,24.5 -1.6,29.5l-0.6,9.3l6.4,0l6.5,0l0.6,-6.8c0.4,-3.7 1.1,-15.9 1.7,-27.2c1.1,-21.8 1.3,-25.2 3.5,-51c2.4,-27.3 4.4,-44.80001 6.1,-53.80001c0.6,-2.9 2.1,-2.6 11.6,1.6c3.5,1.6 8.3,3.7 10.8,4.7c2.5,1 5.9,2.4 7.5,3.1c1.7,0.7 7.8,2.8 13.8,4.8c19.1,6.3 29.8,6.9 35.70001,2c2.7,-2.3 3,-3.2 3,-8.4c0,-4.4 -0.7,-7.1 -2.6,-10.7c-3.7,-7.1 -12,-17.6 -23.4,-29.6c-5.6,-5.9 -9.7,-10.7 -9.2,-10.7c0.6,0 2.4,-1.4 4.1,-3.1c3.9,-3.8 4,-7.4 0.4,-11.1c-1.9,-2 -2.3,-3.1 -1.6,-4c0.6,-0.7 2.1,-3.8 3.3,-6.8c1.2,-3 2.6,-6.4 3,-7.5c4.1,-10.1 7.4,-29.7 6.6,-38.7c-1,-11.6 -4.4,-23.6 -8.9,-31.9c-9.2,-16.9 -22.9,-30.4 -40.70001,-40.1c-7.8,-4.2 -22.6,-10.1 -30,-11.9c-28.3,-6.9 -52.4,-9 -71.5,-6.3zm50,14.7c10.7,2.1 23.1,5.3 28,7.3c5.2,2.1 21.4,10 23.9,11.6c13.1,8.5 24.3,20.7 29.6,32.3c5.1,10.9 6.2,16.1 6.2,28.5c-0.1,12.1 -1.6,20.2 -6.5,33c-6.4,16.9 -18.4,35.30001 -32.4,49.70001c-17.1,17.5 -30.9,25.6 -51.5,30.2c-6,1.4 -25.6,1.4 -33.4,0.1c-8.3,-1.5 -18.7,-4.2 -19.9,-5.2c-0.5,-0.4 -1.6,-0.8 -2.5,-0.8c-0.9,0 -6.5,-2.4 -12.5,-5.4c-18.1,-9 -28.6,-20.3 -36.8,-39.6c-3.3,-7.7 -7.3,-24.1 -6.4,-25.7c0.4,-0.6 5.7,-1.3 11.8,-1.6c6.6,-0.4 11.8,-1.2 12.7,-1.9c0.8,-0.7 2.9,-4.5 4.7,-8.3c6.5,-14.4 6.6,-14.7 3.3,-18.2c-2.4,-2.6 -7.9,-3.1 -9.6,-1c-1.3,1.5 -3.9,9.2 -4.4,12.7c-0.3,2.5 -0.4,2.5 -11,2.8l-10.8,0.3l0,-14.6c0,-7.9 0.4,-16.4 1,-18.7c0.5,-2.4 1.7,-7.7 2.6,-11.8c2.1,-9.9 9.1,-24 15.7,-31.8c10.8,-12.6 22.8,-19.3 45.2,-25c6,-1.5 43.4,-0.8 53,1.1l0,-0.00001zm-127.7,118.40001c0.5,1 1.2,4 1.6,6.8c0.7,5.2 1.5,8.1 5.2,18.2l2.2,6.3l-2.9,0c-1.6,0 -3.7,-0.4 -4.7,-0.9c-0.9,-0.5 -6.2,-2.3 -11.7,-4.1c-5.5,-1.7 -11.4,-3.8 -13.2,-4.6c-1.7,-0.8 -3.6,-1.4 -4.2,-1.4c-0.6,0 -1.9,-0.4 -2.9,-1c-0.9,-0.5 -3.9,-1.9 -6.7,-3.1c-6,-2.5 -11.7,-6.7 -11,-7.9c1.6,-2.6 12.7,-5.8 28.5,-8.4c12.8,-2 18.7,-2 19.8,0.1zm210.30001,46.5c16.8,17.9 25.1,29 23.1,31c-1.3,1.3 -14.4,-1.8 -25.4,-6.1c-1.2,-0.5 -4.3,-1.7 -6.8,-2.6c-2.5,-1 -6.4,-2.6 -8.8,-3.7c-2.4,-1 -6.1,-2.6 -8.2,-3.4c-2.2,-0.9 -4,-1.8 -4,-2.1c0,-0.3 3.2,-3.9 7.1,-8.1c3.9,-4.3 8.3,-9.4 9.7,-11.4c1.5,-2.1 2.9,-3.8 3.2,-3.8c0.3,0 4.9,4.6 10.1,10.2z" id="svg_2" fill="#000000"/>
  <path d="m228.5,123.751931c-7.7,1.3 -9.7,3 -12.1,10.1c-2.8,8.2 -2.9,12.3 -0.4,17.5c1.4,3 3.2,4.7 6.3,6.2c6.8,3.4 9.8,3.6 16,1.3c5.3,-2 5.7,-2.4 7.8,-7.8c1.2,-3.1 2.4,-8 2.6,-10.8c0.5,-4.6 0.2,-5.4 -2.6,-8.7c-3.1,-3.4 -11.1,-8.8 -12.8,-8.6c-0.4,0.1 -2.6,0.5 -4.8,0.8z" id="svg_3" fill="#000000"/>
  <path d="m278.4,130.451931c-4.2,1.5 -4.6,2.1 -8.5,12.2c-1.3,3.4 -1.1,9.5 0.6,13.5c3.6,8.7 16.2,12.2 25.2,7c3.3,-1.8 4.9,-4.6 6.9,-12.2c2.3,-8.5 -0.3,-14.3 -8.8,-19.7c-4.3,-2.7 -9.2,-3 -15.4,-0.8z" id="svg_4" fill="#000000"/>
  <path d="m184.1,167.451931c-2.6,6.9 -2.7,8.4 -0.2,5.5l2,-2.2l7.9,4c4.3,2.3 8.8,4.1 10,4.1c1.1,0 3.1,0.4 4.4,0.9c1.3,0.5 6.8,1.9 12.3,3.1c5.5,1.2 11.4,2.6 13,3c1.7,0.5 7,1.2 11.9,1.6c7.4,0.6 8.8,0.5 8.4,-0.7c-0.3,-0.9 -2.8,-1.6 -6.9,-2.1c-6.1,-0.6 -8.7,-1.1 -23.9,-4.5c-8.4,-1.8 -16.7,-4.2 -20.5,-5.8c-1.6,-0.7 -5.8,-2.1 -9.2,-3.1l-6.2,-1.9l0.6,-3.8c0.8,-5.6 -1.1,-4.5 -3.6,1.9z" id="svg_5" fill="#000000"/>
 </g>
</svg>