<?xml version="1.0" standalone="no"?>
<!DOCTYPE svg PUBLIC "-//W3C//DTD SVG 20010904//EN"
 "http://www.w3.org/TR/2001/REC-SVG-20010904/DTD/svg10.dtd">
<svg version="1.0" xmlns="http://www.w3.org/2000/svg"
 width="400.000000pt" height="400.000000pt" viewBox="0 0 400.000000 400.000000"
 preserveAspectRatio="xMidYMid meet">

<g transform="translate(0.000000,400.000000) scale(0.100000,-0.100000)"
fill="#000000" stroke="none">
<path d="M1865 3434 c-55 -7 -110 -18 -123 -24 -13 -5 -30 -10 -38 -10 -41 0
-209 -85 -291 -147 -115 -87 -214 -213 -267 -343 -10 -25 -22 -54 -27 -65 -9
-19 -16 -50 -40 -170 -6 -27 -11 -132 -12 -232 -1 -179 -1 -183 -22 -183 -54
0 -375 -59 -389 -72 -6 -4 -16 -8 -24 -8 -19 0 -81 -29 -112 -53 -33 -25 -49
-55 -50 -94 0 -76 75 -145 250 -230 101 -49 138 -65 205 -88 28 -9 57 -21 66
-25 9 -5 33 -12 54 -16 l37 -7 -7 -81 c-3 -44 -10 -103 -15 -131 -5 -27 -16
-122 -25 -210 -8 -88 -20 -205 -26 -260 -18 -175 -48 -709 -48 -872 l-1 -113
64 0 64 0 6 198 c15 405 72 1107 110 1357 4 19 8 51 11 70 7 43 25 45 48 5 27
-45 122 -145 175 -183 154 -112 391 -200 614 -228 155 -20 354 8 492 69 58 26
63 19 47 -71 -19 -106 -57 -558 -71 -829 -5 -112 -12 -245 -16 -295 l-6 -93
64 0 65 0 6 68 c4 37 11 159 17 272 11 218 13 252 35 510 24 273 44 448 61
538 6 29 21 26 116 -16 35 -16 83 -37 108 -47 25 -10 59 -24 75 -31 17 -7 78
-28 138 -48 191 -63 298 -69 357 -20 27 23 30 32 30 84 0 44 -7 71 -26 107
-37 71 -120 176 -234 296 -56 59 -97 107 -92 107 6 0 24 14 41 31 39 38 40 74
4 111 -19 20 -23 31 -16 40 6 7 21 38 33 68 12 30 26 64 30 75 41 101 74 297
66 387 -10 116 -44 236 -89 319 -92 169 -229 304 -407 401 -78 42 -226 101
-300 119 -283 69 -524 90 -715 63z m500 -147 c107 -21 231 -53 280 -73 52 -21
214 -100 239 -116 131 -85 243 -207 296 -323 51 -109 62 -161 62 -285 -1 -121
-16 -202 -65 -330 -64 -169 -184 -353 -324 -497 -171 -175 -309 -256 -515
-302 -60 -14 -256 -14 -334 -1 -83 15 -187 42 -199 52 -5 4 -16 8 -25 8 -9 0
-65 24 -125 54 -181 90 -286 203 -368 396 -33 77 -73 241 -64 257 4 6 57 13
118 16 66 4 118 12 127 19 8 7 29 45 47 83 65 144 66 147 33 182 -24 26 -79
31 -96 10 -13 -15 -39 -92 -44 -127 -3 -25 -4 -25 -110 -28 l-108 -3 0 146 c0
79 4 164 10 187 5 24 17 77 26 118 21 99 91 240 157 318 108 126 228 193 452
250 60 15 434 8 530 -11z m-1277 -1184 c5 -10 12 -40 16 -68 7 -52 15 -81 52
-182 l22 -63 -29 0 c-16 0 -37 4 -47 9 -9 5 -62 23 -117 41 -55 17 -114 38
-132 46 -17 8 -36 14 -42 14 -6 0 -19 4 -29 10 -9 5 -39 19 -67 31 -60 25
-117 67 -110 79 16 26 127 58 285 84 128 20 187 20 198 -1z m2103 -465 c168
-179 251 -290 231 -310 -13 -13 -144 18 -254 61 -12 5 -43 17 -68 26 -25 10
-64 26 -88 37 -24 10 -61 26 -82 34 -22 9 -40 18 -40 21 0 3 32 39 71 81 39
43 83 94 97 114 15 21 29 38 32 38 3 0 49 -46 101 -102z"/>
<path d="M2285 2531 c-77 -13 -97 -30 -121 -101 -28 -82 -29 -123 -4 -175 14
-30 32 -47 63 -62 68 -34 98 -36 160 -13 53 20 57 24 78 78 12 31 24 80 26
108 5 46 2 54 -26 87 -31 34 -111 88 -128 86 -4 -1 -26 -5 -48 -8z"/>
<path d="M2784 2464 c-42 -15 -46 -21 -85 -122 -13 -34 -11 -95 6 -135 36 -87
162 -122 252 -70 33 18 49 46 69 122 23 85 -3 143 -88 197 -43 27 -92 30 -154
8z"/>
<path d="M1841 2094 c-26 -69 -27 -84 -2 -55 l20 22 79 -40 c43 -23 88 -41
100 -41 11 0 31 -4 44 -9 13 -5 68 -19 123 -31 55 -12 114 -26 130 -30 17 -5
70 -12 119 -16 74 -6 88 -5 84 7 -3 9 -28 16 -69 21 -61 6 -87 11 -239 45 -84
18 -167 42 -205 58 -16 7 -58 21 -92 31 l-62 19 6 38 c8 56 -11 45 -36 -19z"/>
</g>
</svg>
